<svg xmlns="http://www.w3.org/2000/svg" version="1.1" xmlns:xlink="http://www.w3.org/1999/xlink" xmlns:svgjs="http://svgjs.com/svgjs" width="1440" height="900" preserveAspectRatio="none" viewBox="0 0 1440 900"><g mask="url(&quot;#SvgjsMask2978&quot;)" fill="none"><rect width="1440" height="900" x="0" y="0" fill="rgba(1, 8, 16, 1)"></rect><path d="M547.4200000000001 185.72 L635.36 185.02L559.0605803370441 153.04058033704408z" stroke="#e73635" stroke-width="1.77"></path><path d="M1377.26 58.15L1366.51 51.2 1370.93 39.18 1360.17 32.23 1364.59 20.21 1353.83 13.26 1358.25 1.24" stroke="#037b0b" stroke-width="1" stroke-dasharray="4, 4"></path><rect width="313.12" height="313.12" clip-path="url(&quot;#SvgjsClipPath2979&quot;)" x="829.89" y="402.67" fill="url(#SvgjsPattern2980)" transform="rotate(138.05, 986.45, 559.23)"></rect><rect width="444" height="444" clip-path="url(&quot;#SvgjsClipPath2981&quot;)" x="-55.78" y="-137.49" fill="url(#SvgjsPattern2982)" transform="rotate(325.9, 166.22, 84.51)"></rect><rect width="276.08" height="276.08" clip-path="url(&quot;#SvgjsClipPath2983&quot;)" x="1109.37" y="516.51" fill="url(#SvgjsPattern2984)" transform="rotate(307.71, 1247.41, 654.55)"></rect><rect width="249.20000000000002" height="249.20000000000002" clip-path="url(&quot;#SvgjsClipPath2985&quot;)" x="820.22" y="-46.57" fill="url(#SvgjsPattern2986)" transform="rotate(130.09, 944.82, 78.03)"></rect><path d="M1622.8000000000002 744.6899999999999 L1481.14 685.4399999999999L1453.3901782563007 813.6448217436995z" fill="#e73635"></path><rect width="206.72" height="206.72" clip-path="url(&quot;#SvgjsClipPath2987&quot;)" x="703.75" y="191.09" fill="url(#SvgjsPattern2988)" transform="rotate(313.72, 807.11, 294.45)"></rect></g><defs><mask id="SvgjsMask2978"><rect width="1440" height="900" fill="#ffffff"></rect></mask><pattern x="0" y="0" width="313.12" height="8.24" patternUnits="userSpaceOnUse" id="SvgjsPattern2980"><rect width="313.12" height="4.12" x="0" y="0" fill="#037b0b"></rect><rect width="313.12" height="4.12" x="0" y="4.12" fill="rgba(0, 0, 0, 0)"></rect></pattern><clipPath id="SvgjsClipPath2979"><circle r="78.28" cx="986.45" cy="559.23"></circle></clipPath><pattern x="0" y="0" width="6" height="6" patternUnits="userSpaceOnUse" id="SvgjsPattern2982"><path d="M3 1L3 5M1 3L5 3" stroke="#e73635" fill="none" stroke-width="1"></path></pattern><clipPath id="SvgjsClipPath2981"><circle r="111" cx="166.22" cy="84.51"></circle></clipPath><pattern x="0" y="0" width="9.86" height="9.86" patternUnits="userSpaceOnUse" id="SvgjsPattern2984"><path d="M4.93 1L4.93 8.86M1 4.93L8.86 4.93" stroke="#d3b714" fill="none" stroke-width="2.78"></path></pattern><clipPath id="SvgjsClipPath2983"><circle r="69.02" cx="1247.41" cy="654.55"></circle></clipPath><pattern x="0" y="0" width="12.46" height="12.46" patternUnits="userSpaceOnUse" id="SvgjsPattern2986"><path d="M0 12.46L6.23 0L12.46 12.46" stroke="#037b0b" fill="none"></path></pattern><clipPath id="SvgjsClipPath2985"><circle r="62.300000000000004" cx="944.82" cy="78.03"></circle></clipPath><pattern x="0" y="0" width="12.92" height="12.92" patternUnits="userSpaceOnUse" id="SvgjsPattern2988"><path d="M6.46 1L6.46 11.92M1 6.46L11.92 6.46" stroke="#e73635" fill="none" stroke-width="3.82"></path></pattern><clipPath id="SvgjsClipPath2987"><circle r="51.68" cx="807.11" cy="294.45"></circle></clipPath></defs></svg>