<svg xmlns="http://www.w3.org/2000/svg" version="1.1" xmlns:xlink="http://www.w3.org/1999/xlink" xmlns:svgjs="http://svgjs.com/svgjs" width="1500" height="1500" preserveAspectRatio="none" viewBox="0 0 1500 1500"><g mask="url(&quot;#SvgjsMask38130&quot;)" fill="none"><rect width="1500" height="1500" x="0" y="0" fill="rgba(223, 228, 233, 1)"></rect><rect width="840" height="840" clip-path="url(&quot;#SvgjsClipPath38131&quot;)" x="449.8" y="625.14" fill="url(#SvgjsPattern38132)" transform="rotate(242.89, 869.8, 1045.14)"></rect><rect width="888.8" height="888.8" clip-path="url(&quot;#SvgjsClipPath38133&quot;)" x="608.24" y="451.42" fill="url(#SvgjsPattern38134)" transform="rotate(7.37, 1052.64, 895.82)"></rect><path d="M126.74 1101.55L115.56 1095.3 119.21 1083.02 108.03 1076.77 111.67 1064.49 100.5 1058.24 104.14 1045.96M134.15 1098.53L122.97 1092.28 126.62 1080.01 115.44 1073.76 119.09 1061.48 107.91 1055.23 111.55 1042.95" stroke="rgba(236, 207, 213, 1)" stroke-width="1.44" stroke-dasharray="2, 2"></path><path d="M1035.14 667.93a5.6 5.6 0 1 0 8.12-7.71 5.6 5.6 0 1 0-8.12 7.71zM1046.75 656.92a5.6 5.6 0 1 0 8.12-7.71 5.6 5.6 0 1 0-8.12 7.71zM1058.36 645.91a5.6 5.6 0 1 0 8.12-7.71 5.6 5.6 0 1 0-8.12 7.71zM1069.97 634.9a5.6 5.6 0 1 0 8.12-7.71 5.6 5.6 0 1 0-8.12 7.71zM1022.93 701.56a5.6 5.6 0 1 0 8.12-7.71 5.6 5.6 0 1 0-8.12 7.71zM1034.54 690.55a5.6 5.6 0 1 0 8.12-7.71 5.6 5.6 0 1 0-8.12 7.71zM1046.15 679.54a5.6 5.6 0 1 0 8.12-7.71 5.6 5.6 0 1 0-8.12 7.71zM1057.76 668.53a5.6 5.6 0 1 0 8.12-7.71 5.6 5.6 0 1 0-8.12 7.71z" stroke="rgba(236, 207, 213, 1)" stroke-width="2.81" stroke-dasharray="4, 4"></path><path d="M821.52 481.04L817.41 493.17 804.68 491.83 800.57 503.96 787.84 502.62 783.73 514.75 770.99 513.4" stroke="rgba(51, 51, 57, 1)" stroke-width="1" stroke-dasharray="3, 3"></path></g><defs><mask id="SvgjsMask38130"><rect width="1500" height="1500" fill="#ffffff"></rect></mask><pattern x="0" y="0" width="6" height="6" patternUnits="userSpaceOnUse" id="SvgjsPattern38132"><path d="M3 1L3 5M1 3L5 3" stroke="rgba(194, 198, 232, 1)" fill="none" stroke-width="1"></path></pattern><clipPath id="SvgjsClipPath38131"><circle r="210" cx="869.8" cy="1045.14"></circle></clipPath><pattern x="0" y="0" width="8.08" height="8.08" patternUnits="userSpaceOnUse" id="SvgjsPattern38134"><path d="M4.04 1L4.04 7.08M1 4.04L7.08 4.04" stroke="rgba(194, 198, 232, 1)" fill="none" stroke-width="1.8"></path></pattern><clipPath id="SvgjsClipPath38133"><circle r="222.2" cx="1052.64" cy="895.82"></circle></clipPath></defs></svg>